ffmpeg started on 2015-06-27 at 18:04:49
Report written to "ffv1_test_pixfmt-bgr0_coder-0_level-3.txt"
Command line:
ffmpeg -y -f lavfi -i mandelbrot -c:v ffv1 -pix_fmt bgr0 -level 3 -coder 0 -t 1 ffv1_test_pixfmt-bgr0_coder-0_level-3.mkv
ffmpeg version 2.6.3 Copyright (c) 2000-2015 the FFmpeg developers
  built with Apple LLVM version 6.1.0 (clang-602.0.49) (based on LLVM 3.6.0svn)
  configuration: --prefix=/usr/local/Cellar/ffmpeg/2.6.3 --enable-shared --enable-pthreads --enable-gpl --enable-version3 --enable-hardcoded-tables --enable-avresample --cc=clang --host-cflags= --host-ldflags= --enable-libx264 --enable-libmp3lame --enable-libvo-aacenc --enable-libxvid --enable-libfaac --enable-ffplay --enable-nonfree --enable-vda
  libavutil      54. 20.100 / 54. 20.100
  libavcodec     56. 26.100 / 56. 26.100
  libavformat    56. 25.101 / 56. 25.101
  libavdevice    56.  4.100 / 56.  4.100
  libavfilter     5. 11.102 /  5. 11.102
  libavresample   2.  1.  0 /  2.  1.  0
  libswscale      3.  1.101 /  3.  1.101
  libswresample   1.  1.100 /  1.  1.100
  libpostproc    53.  3.100 / 53.  3.100
Splitting the commandline.
Reading option '-y' ... matched as option 'y' (overwrite output files) with argument '1'.
Reading option '-f' ... matched as option 'f' (force format) with argument 'lavfi'.
Reading option '-i' ... matched as input file with argument 'mandelbrot'.
Reading option '-c:v' ... matched as option 'c' (codec name) with argument 'ffv1'.
Reading option '-pix_fmt' ... matched as option 'pix_fmt' (set pixel format) with argument 'bgr0'.
Reading option '-level' ... matched as AVOption 'level' with argument '3'.
Reading option '-coder' ... matched as AVOption 'coder' with argument '0'.
Reading option '-t' ... matched as option 't' (record or transcode "duration" seconds of audio/video) with argument '1'.
Reading option 'ffv1_test_pixfmt-bgr0_coder-0_level-3.mkv' ... matched as output file.
Finished splitting the commandline.
Parsing a group of options: global .
Applying option y (overwrite output files) with argument 1.
Successfully parsed a group of options.
Parsing a group of options: input file mandelbrot.
Applying option f (force format) with argument lavfi.
Successfully parsed a group of options.
Opening an input file: mandelbrot.
detected 4 logical cores
[AVFilterGraph @ 0x7fa343423980] query_formats: 2 queried, 1 merged, 0 already done, 0 delayed
[lavfi @ 0x7fa34380da00] All info found
Input #0, lavfi, from 'mandelbrot':
  Duration: N/A, start: 0.000000, bitrate: N/A
    Stream #0:0, 1, 1/25: Video: rawvideo (RGBA / 0x41424752), rgba, 640x480 [SAR 1:1 DAR 4:3], 25 tbr, 25 tbn, 25 tbc
Successfully opened the file.
Parsing a group of options: output file ffv1_test_pixfmt-bgr0_coder-0_level-3.mkv.
Applying option c:v (codec name) with argument ffv1.
Applying option pix_fmt (set pixel format) with argument bgr0.
Applying option t (record or transcode "duration" seconds of audio/video) with argument 1.
Successfully parsed a group of options.
Opening an output file: ffv1_test_pixfmt-bgr0_coder-0_level-3.mkv.
Successfully opened the file.
[graph 0 input from stream 0:0 @ 0x7fa343500be0] Setting 'video_size' to value '640x480'
[graph 0 input from stream 0:0 @ 0x7fa343500be0] Setting 'pix_fmt' to value '28'
[graph 0 input from stream 0:0 @ 0x7fa343500be0] Setting 'time_base' to value '1/25'
[graph 0 input from stream 0:0 @ 0x7fa343500be0] Setting 'pixel_aspect' to value '1/1'
[graph 0 input from stream 0:0 @ 0x7fa343500be0] Setting 'sws_param' to value 'flags=2'
[graph 0 input from stream 0:0 @ 0x7fa343500be0] Setting 'frame_rate' to value '25/1'
[graph 0 input from stream 0:0 @ 0x7fa343500be0] w:640 h:480 pixfmt:rgba tb:1/25 fr:25/1 sar:1/1 sws_param:flags=2
[format @ 0x7fa343501140] compat: called with args=[bgr0]
[format @ 0x7fa343501140] Setting 'pix_fmts' to value 'bgr0'
[auto-inserted scaler 0 @ 0x7fa343501cc0] Setting 'flags' to value '0x4'
[auto-inserted scaler 0 @ 0x7fa343501cc0] w:iw h:ih flags:'0x4' interl:0
[format @ 0x7fa343501140] auto-inserting filter 'auto-inserted scaler 0' between the filter 'Parsed_null_0' and the filter 'format'
[AVFilterGraph @ 0x7fa3436003e0] query_formats: 5 queried, 3 merged, 1 already done, 0 delayed
[swscaler @ 0x7fa344014200] Forcing full internal H chroma due to input having non subsampled chroma
[auto-inserted scaler 0 @ 0x7fa343501cc0] w:640 h:480 fmt:rgba sar:1/1 -> w:640 h:480 fmt:bgr0 sar:1/1 flags:0x4
Output #0, matroska, to 'ffv1_test_pixfmt-bgr0_coder-0_level-3.mkv':
  Metadata:
    encoder         : Lavf56.25.101
    Stream #0:0, 0, 1/1000: Video: ffv1 (FFV1 / 0x31564646), bgr0, 640x480 [SAR 1:1 DAR 4:3], q=2-31, 200 kb/s, 25 fps, 1k tbn, 25 tbc
    Metadata:
      encoder         : Lavc56.26.100 ffv1
Stream mapping:
  Stream #0:0 -> #0:0 (rawvideo (native) -> ffv1 (native))
Press [q] to stop, [?] for help
Cliping frame in rate conversion by 0.000008
[matroska @ 0x7fa345000000] Writing block at offset 689, size 217092, pts 0, dts 0, duration 40, flags 128
[matroska @ 0x7fa345000000] Writing block at offset 217789, size 213103, pts 40, dts 40, duration 40, flags 0
[matroska @ 0x7fa345000000] Writing block at offset 430900, size 213662, pts 80, dts 80, duration 40, flags 0
[matroska @ 0x7fa345000000] Writing block at offset 644570, size 215662, pts 120, dts 120, duration 40, flags 0
[matroska @ 0x7fa345000000] Writing block at offset 860240, size 217654, pts 160, dts 160, duration 40, flags 0
[matroska @ 0x7fa345000000] Writing block at offset 1077902, size 219956, pts 200, dts 200, duration 40, flags 0
[matroska @ 0x7fa345000000] Writing block at offset 1297866, size 222423, pts 240, dts 240, duration 40, flags 0
[matroska @ 0x7fa345000000] Writing block at offset 1520297, size 225536, pts 280, dts 280, duration 40, flags 0
[matroska @ 0x7fa345000000] Writing block at offset 1745841, size 229456, pts 320, dts 320, duration 40, flags 0
[matroska @ 0x7fa345000000] Writing block at offset 1975305, size 232889, pts 360, dts 360, duration 40, flags 0
[matroska @ 0x7fa345000000] Writing block at offset 2208202, size 236332, pts 400, dts 400, duration 40, flags 0
[matroska @ 0x7fa345000000] Writing block at offset 2444542, size 239691, pts 440, dts 440, duration 40, flags 0
[matroska @ 0x7fa345000000] Starting new cluster at offset 2684241 bytes, pts 480dts 480
[matroska @ 0x7fa345000000] Writing block at offset 2684257, size 247168, pts 480, dts 480, duration 40, flags 128
[matroska @ 0x7fa345000000] Writing block at offset 2931433, size 247114, pts 520, dts 520, duration 40, flags 0
[matroska @ 0x7fa345000000] Writing block at offset 3178555, size 250852, pts 560, dts 560, duration 40, flags 0
[matroska @ 0x7fa345000000] Writing block at offset 3429415, size 252737, pts 600, dts 600, duration 40, flags 0
[matroska @ 0x7fa345000000] Writing block at offset 3682160, size 254963, pts 640, dts 640, duration 40, flags 0
[matroska @ 0x7fa345000000] Writing block at offset 3937131, size 257721, pts 680, dts 680, duration 40, flags 0
frame=   18 fps=0.0 q=0.0 size=    4097kB time=00:00:00.72 bitrate=46609.6kbits/s    [matroska @ 0x7fa345000000] Writing block at offset 4194860, size 259350, pts 720, dts 720, duration 40, flags 0
[matroska @ 0x7fa345000000] Writing block at offset 4454218, size 261826, pts 760, dts 760, duration 40, flags 0
[matroska @ 0x7fa345000000] Writing block at offset 4716052, size 263086, pts 800, dts 800, duration 40, flags 0
[matroska @ 0x7fa345000000] Writing block at offset 4979146, size 265595, pts 840, dts 840, duration 40, flags 0
[matroska @ 0x7fa345000000] Writing block at offset 5244749, size 267076, pts 880, dts 880, duration 40, flags 0
[matroska @ 0x7fa345000000] Writing block at offset 5511833, size 268297, pts 920, dts 920, duration 40, flags 0
[matroska @ 0x7fa345000000] Starting new cluster at offset 5780138 bytes, pts 960dts 960
[matroska @ 0x7fa345000000] Writing block at offset 5780154, size 275369, pts 960, dts 960, duration 40, flags 128
[output stream 0:0 @ 0x7fa343500fa0] EOF on sink link output stream 0:0:default.
No more output streams to write to, finishing.
[matroska @ 0x7fa345000000] end duration = 1000
frame=   25 fps=0.0 q=0.0 Lsize=    5914kB time=00:00:01.00 bitrate=48444.8kbits/s    
video:5913kB audio:0kB subtitle:0kB other streams:0kB global headers:0kB muxing overhead: 0.016318%
Input file #0 (mandelbrot):
  Input stream #0:0 (video): 26 packets read (31948800 bytes); 26 frames decoded; 
  Total: 26 packets (31948800 bytes) demuxed
Output file #0 (ffv1_test_pixfmt-bgr0_coder-0_level-3.mkv):
  Output stream #0:0 (video): 25 frames encoded; 25 packets muxed (6054610 bytes); 
  Total: 25 packets (6054610 bytes) muxed
26 frames successfully decoded, 0 decoding errors
[AVIOContext @ 0x7fa343500800] Statistics: 36 seeks, 223 writeouts
